Coordinates
version=1
nRows=43
nColumns=12
inDegrees=yes

Units are S.I. units (second, meters, Newtons, ...)
Angles are in degrees

endheader
time	SC_y	SC_z	SC_x	AC_y	AC_z	AC_x	GH_y	GH_z	GH_yy	EL_x	PS_y
       0.0              -37.83         -3.489          38.79          36.74         -19.56          12.75         -90.34         -16.68          33.05          116.0          110.8
  0.003473              -37.84         -3.485          38.79          36.74         -19.56          12.75         -90.32         -16.66          33.03          116.0          110.8
  0.006945              -37.84         -3.482           38.8          36.75         -19.56          12.74          -90.3         -16.65           33.0          116.0          110.8
   0.01042              -37.84         -3.479           38.8          36.75         -19.55          12.74         -90.28         -16.63          32.98          116.0          110.8
   0.01389              -37.84         -3.475           38.8          36.76         -19.55          12.73         -90.25         -16.61          32.95          115.9          110.8
   0.01736              -37.85         -3.471           38.8          36.76         -19.55          12.73         -90.23         -16.59          32.92          115.9          110.8
   0.02084              -37.85         -3.467           38.8          36.77         -19.55          12.72          -90.2         -16.57          32.88          115.9          110.9
   0.02431              -37.86         -3.462          38.81          36.77         -19.55          12.72         -90.17         -16.55          32.85          115.9          110.9
   0.02778              -37.86         -3.457          38.81          36.78         -19.55          12.71         -90.14         -16.53          32.81          115.9          110.9
   0.03125              -37.86         -3.452          38.81          36.79         -19.55           12.7          -90.1          -16.5          32.77          115.8          110.9
   0.03473              -37.87         -3.446          38.81          36.79         -19.54           12.7         -90.07         -16.47          32.72          115.8          110.9
    0.0382              -37.87          -3.44          38.82           36.8         -19.54          12.69         -90.03         -16.44          32.68          115.8          110.9
   0.04167              -37.88         -3.434          38.82          36.81         -19.54          12.68         -89.99         -16.41          32.63          115.7          110.9
   0.04514              -37.89         -3.427          38.82          36.82         -19.54          12.67         -89.94         -16.38          32.57          115.7          110.9
   0.04862              -37.89         -3.419          38.83          36.83         -19.53          12.66         -89.89         -16.34          32.51          115.7          110.9
   0.05209               -37.9         -3.411          38.83          36.84         -19.53          12.65         -89.84          -16.3          32.45          115.6          110.9
   0.05556              -37.91         -3.402          38.84          36.85         -19.53          12.64         -89.78         -16.25          32.38          115.6          110.9
   0.05904              -37.92         -3.392          38.84          36.86         -19.52          12.63         -89.72         -16.21           32.3          115.5          110.9
   0.06251              -37.92         -3.382          38.85          36.88         -19.52          12.61         -89.65         -16.15          32.22          115.5          110.9
   0.06598              -37.93          -3.37          38.86          36.89         -19.52           12.6         -89.58          -16.1          32.13          115.4          111.0
   0.06945              -37.95         -3.357          38.86          36.91         -19.51          12.58         -89.49         -16.03          32.03          115.3          111.0
   0.07293              -37.96         -3.343          38.87          36.93         -19.51          12.57          -89.4         -15.96          31.92          115.3          111.0
    0.0764              -37.97         -3.327          38.88          36.95          -19.5          12.55          -89.3         -15.89           31.8          115.2          111.0
   0.07987              -37.99          -3.31          38.89          36.97         -19.49          12.53         -89.19          -15.8          31.66          115.1          111.0
   0.08334               -38.0         -3.291           38.9           37.0         -19.49           12.5         -89.07         -15.71          31.51          115.0          111.0
   0.08682              -38.02          -3.27          38.91          37.02         -19.48          12.47         -88.93          -15.6          31.34          114.9          111.1
   0.09029              -38.04         -3.246          38.92          37.05         -19.47          12.44         -88.78         -15.49          31.16          114.8          111.1
   0.09376              -38.06         -3.219          38.94          37.09         -19.46          12.41          -88.6         -15.35          30.95          114.6          111.1
   0.09723              -38.09         -3.188          38.95          37.13         -19.45          12.37         -88.41          -15.2          30.71          114.5          111.2
    0.1007              -38.12         -3.154          38.97          37.17         -19.44          12.33         -88.18         -15.03          30.44          114.3          111.2
    0.1042              -38.15         -3.114          38.99          37.22         -19.42          12.28         -87.93         -14.84          30.13          114.1          111.2
    0.1077              -38.19         -3.069          39.02          37.28         -19.41          12.22         -87.64         -14.62          29.77          113.9          111.3
    0.1111              -38.24         -3.016          39.04          37.35         -19.39          12.16          -87.3         -14.36          29.37          113.6          111.4
    0.1146              -38.29         -2.956          39.08          37.43         -19.37          12.08         -86.91         -14.06          28.89          113.3          111.4
    0.1181              -38.35         -2.884          39.12          37.52         -19.34          11.99         -86.45         -13.71          28.33          112.9          111.5
    0.1215              -38.42           -2.8          39.16          37.63         -19.31          11.88         -85.91          -13.3          27.68          112.5          111.6
     0.125              -38.51         -2.701          39.21          37.76         -19.28          11.76         -85.27         -12.81           26.9          112.0          111.7
    0.1285              -38.61         -2.581          39.28          37.91         -19.23          11.61          -84.5         -12.22          25.97          111.4          111.8
     0.132              -38.74         -2.437          39.36           38.1         -19.18          11.43         -83.57         -11.51          24.84          110.6          112.0
    0.1354              -38.89          -2.26          39.45          38.33         -19.12          11.21         -82.44         -10.64          23.46          109.7          112.2
    0.1389              -39.07         -2.042          39.57          38.61         -19.04          10.93         -81.04         -9.567          21.75          108.6          112.4
    0.1424              -39.31          -1.77          39.71          38.96         -18.95          10.59         -79.29          -8.23          19.63          107.2          112.8
    0.1459               -39.6         -1.428           39.9           39.4         -18.82          10.16         -77.08         -6.547          16.96          105.5          113.1
